<?xml version="1.0" encoding="utf-8"?>
<!-- Generator: Adobe Illustrator 21.1.0, SVG Export Plug-In . SVG Version: 6.00 Build 0)  -->
<svg version="1.1" id="Layer_1" xmlns="http://www.w3.org/2000/svg" xmlns:xlink="http://www.w3.org/1999/xlink" x="0px" y="0px"
	 viewBox="0 0 481.9 340.2" style="enable-background:new 0 0 481.9 340.2;" xml:space="preserve">
<style type="text/css">
	.st0{fill:#FFFFFF;}
</style>
<path class="st0" d="M357.2,145.5c0-0.2,0-0.3,0-0.5c0-1,0.1-2,0.1-2.9c0-33.9-27.5-72.4-61.4-72.4c-15.9,0-34.3,6-45.2,15.9
	c-5.7,5.7-14.1,5.4-19.5,0c-10.9-9.9-29.4-15.9-45.2-15.9c-33.9,0-61.4,38.5-61.4,72.4c0,1,0,1.9,0.1,2.9c0,0.2,0,0.3,0,0.5
	c2.2,41.8,42.7,96.5,87.8,118c7.8,4.1,16.5,6.5,25.8,6.9c0.9,0,1.8,0.1,2.7,0.1s1.8,0,2.7-0.1c9.3-0.4,18-2.9,25.8-6.9
	C314.5,242.1,355.1,187.3,357.2,145.5z"/>
</svg>
