<?xml version="1.0" encoding="utf-8"?>
<!-- Generator: Adobe Illustrator 21.1.0, SVG Export Plug-In . SVG Version: 6.00 Build 0)  -->
<svg version="1.1" id="Layer_1" xmlns="http://www.w3.org/2000/svg" xmlns:xlink="http://www.w3.org/1999/xlink" x="0px" y="0px"
	 viewBox="0 0 349.6 349.6" style="enable-background:new 0 0 349.6 349.6;" xml:space="preserve">
<style type="text/css">
	.st0{fill:#FFFFFF;}
</style>
<path id="White_2_" class="st0" d="M330.3,0h-311C8.6,0,0,8.6,0,19.3v311c0,10.7,8.6,19.3,19.3,19.3h167.4V214.2h-45.6v-52.8h45.6
	v-38.9c0-45.2,27.6-69.7,67.9-69.7c19.3,0,35.9,1.4,40.7,2.1v47.2l-27.9,0c-21.9,0-26.1,10.4-26.1,25.7v33.7h52.2l-6.8,52.8h-45.4
	v135.4h89.1c10.7,0,19.3-8.6,19.3-19.3v-311C349.6,8.6,340.9,0,330.3,0z"/>
</svg>
