<?xml version="1.0" encoding="utf-8"?>
<!-- Generator: Adobe Illustrator 21.1.0, SVG Export Plug-In . SVG Version: 6.00 Build 0)  -->
<svg version="1.1" id="Layer_1" xmlns="http://www.w3.org/2000/svg" xmlns:xlink="http://www.w3.org/1999/xlink" x="0px" y="0px"
	 viewBox="0 0 349.6 349.6" style="enable-background:new 0 0 349.6 349.6;" xml:space="preserve">
<style type="text/css">
	.st0{display:none;fill:#FFFFFF;}
	.st1{fill:#FFFFFF;}
</style>
<path id="White_2_" class="st0" d="M330.3,0h-311C8.6,0,0,8.6,0,19.3v311c0,10.7,8.6,19.3,19.3,19.3h167.4V214.2h-45.6v-52.8h45.6
	v-38.9c0-45.2,27.6-69.7,67.9-69.7c19.3,0,35.9,1.4,40.7,2.1v47.2l-27.9,0c-21.9,0-26.1,10.4-26.1,25.7v33.7h52.2l-6.8,52.8h-45.4
	v135.4h89.1c10.7,0,19.3-8.6,19.3-19.3v-311C349.6,8.6,340.9,0,330.3,0z"/>
<g>
	<path class="st1" d="M234.3,349.6c-39.7,0-79.4,0-119.1,0c-1.2-0.2-2.3-0.6-3.5-0.7c-10.5-0.9-21.2-1.2-31.6-2.9
		c-21.3-3.4-39.5-12.8-54.1-29.1c-8.2-9.1-14-19.4-18.1-30.8c-5.2-14.6-6.9-29.8-7-45.2c0-1.4-0.4-2.8-0.7-4.2
		c0-41.3,0-82.6,0-123.9c0.2-1,0.7-2.1,0.7-3.1C1,97.4,2.2,85.2,5.2,73.2c5.7-23.1,18.1-41.7,37.8-55c14.3-9.7,30.6-14.3,47.6-16
		c10.9-1.1,21.9-1.1,32.9-1.5c4.7-0.2,9.5,0,14.2-0.1c1,0,2.1-0.4,3.1-0.7c22.6,0,45.2,0,67.8,0c1.2,0.2,2.3,0.7,3.5,0.7
		c16.7,0,33.4-0.1,50.1,2c12.2,1.5,23.9,4.7,34.9,10.1c11.2,5.5,20.5,13.2,28.6,22.8c6.1,7.3,10.9,15.3,14.3,24.1
		c6,15.5,8.5,31.7,8.4,48.3c0,1.2,0.4,2.3,0.7,3.5c0,42.2,0,84.4,0,126.7c-0.2,0.9-0.6,1.8-0.7,2.8c-1,9.8-1.2,19.8-2.9,29.5
		c-3.6,21.3-13.1,39.5-29.6,53.9c-9,7.9-19.1,13.7-30.3,17.6c-15.3,5.3-31.2,7-47.3,7C237.1,348.9,235.7,349.3,234.3,349.6z
		 M233.2,317.7c0-0.1,0-0.3,0-0.4c4.6-0.3,9.1-0.8,13.7-0.9c8.9-0.2,17.6-1.5,26.1-4.2c15.7-5,27.6-14.7,35.2-29.3
		c4.9-9.3,7.2-19.6,7.8-30c0.9-14.9,1.4-29.8,1.4-44.7c0-30.2-0.5-60.4-0.6-90.5c0-11.3-0.5-22.6-2.9-33.7
		c-2.4-11.4-7-21.7-15.1-30.2c-7.6-8-16.9-13.1-27.4-16.4c-13.8-4.3-28.1-4.5-42.3-4.6c-38.1-0.3-76.3,0.3-114.4,0.5
		c-10.3,0-20.5,0.6-30.6,2.8c-11.9,2.5-22.6,7.3-31.4,15.8c-11.2,10.9-17,24.7-18.3,39.9c-1.5,17.7-2.1,35.5-2.2,53.2
		c-0.2,28.6,0.4,57.1,0.5,85.7c0,11.7,0.5,23.3,2.8,34.7c3.3,16.4,11.3,29.8,25.2,39.3c11.1,7.6,23.7,10.5,36.8,11.6
		c12.4,1,25,1.4,37.4,1.4C167.7,317.9,200.4,317.7,233.2,317.7z"/>
	<path class="st1" d="M174.9,85.2c49.2-0.3,91.5,40,89.8,93.1c-1.5,47.3-39.4,87-90.7,86.7c-48.8-0.3-90.5-39.2-89.1-92.8
		C86.1,125.1,124.3,85.1,174.9,85.2z M117.3,174.9c-0.7,32,26,56.2,53.8,57.7c35.3,1.9,61.6-25.5,61.5-57.7
		c-0.1-31.4-24.5-57.5-58-57.7C142.9,117.1,116.8,143.4,117.3,174.9z"/>
	<path class="st1" d="M289,82c0.8,11.4-9.8,21.4-21.3,21.3c-10.3-0.1-21.4-9-21.1-22.4c0.2-9,9.4-20.9,22.5-20.2
		C278.5,61.1,290.2,70.9,289,82z"/>
</g>
</svg>
