<?xml version="1.0" standalone="no"?>
<!DOCTYPE svg PUBLIC "-//W3C//DTD SVG 20010904//EN"
 "http://www.w3.org/TR/2001/REC-SVG-20010904/DTD/svg10.dtd">
<svg version="1.0" xmlns="http://www.w3.org/2000/svg"
 width="790.000000pt" height="790.000000pt" viewBox="0 0 790.000000 790.000000"
 preserveAspectRatio="xMidYMid meet">
<metadata>
Created by potrace 1.11, written by Peter Selinger 2001-2013
</metadata>
<g transform="translate(0.000000,790.000000) scale(0.100000,-0.100000)"
fill="#000000" stroke="none">
<path d="M2010 7237 c-3 -3 -32 -8 -65 -12 -33 -4 -70 -9 -82 -10 -12 -2 -37
-8 -55 -14 -18 -6 -44 -12 -58 -15 -44 -8 -153 -47 -227 -81 -40 -19 -73 -31
-73 -27 0 4 -4 3 -8 -3 -4 -5 -16 -15 -27 -21 -140 -76 -258 -153 -321 -209
-7 -5 -31 -26 -55 -45 -47 -39 -184 -173 -239 -235 -143 -162 -283 -369 -380
-562 -28 -56 -50 -104 -48 -105 1 -2 -5 -16 -15 -33 -41 -73 -111 -275 -152
-433 -25 -101 -31 -128 -41 -202 -3 -25 -8 -47 -9 -50 -8 -14 -19 -179 -19
-300 0 -119 8 -262 18 -317 2 -10 7 -40 10 -68 4 -27 11 -67 16 -88 4 -20 6
-37 3 -37 -3 0 0 -7 7 -15 7 -8 10 -15 8 -15 -5 0 7 -57 27 -132 3 -10 7 -26
9 -35 14 -62 20 -79 29 -90 5 -7 7 -13 3 -13 -3 0 1 -16 9 -36 8 -20 17 -46
19 -58 4 -20 47 -139 65 -181 5 -11 16 -38 24 -60 9 -22 23 -58 33 -80 10 -22
17 -43 16 -47 -1 -5 3 -8 8 -8 6 0 10 -6 10 -12 0 -7 19 -51 42 -98 23 -47 42
-87 43 -90 1 -5 5 -14 58 -110 63 -116 81 -147 120 -215 23 -38 45 -72 49 -73
5 -2 8 -8 8 -14 0 -5 14 -29 30 -53 17 -24 30 -48 30 -53 0 -6 3 -12 8 -14 4
-1 31 -39 61 -83 30 -44 58 -81 63 -83 4 -2 8 -9 8 -15 0 -14 203 -283 275
-364 5 -6 28 -33 50 -59 22 -27 65 -76 94 -109 30 -33 69 -75 85 -94 57 -63
332 -335 396 -391 35 -30 68 -59 74 -65 47 -45 247 -203 371 -293 267 -193
513 -336 825 -480 103 -48 279 -103 405 -127 17 -3 39 -8 50 -10 188 -40 514
-36 730 8 11 3 38 8 60 12 48 10 37 7 110 28 359 104 901 412 1300 741 27 23
58 48 68 56 169 137 550 513 688 680 11 14 35 41 52 61 18 20 43 51 57 69 14
18 30 37 35 44 6 6 24 29 40 51 17 22 32 42 36 45 3 3 25 32 50 65 24 33 47
64 52 70 36 49 97 136 106 153 6 11 17 27 23 34 7 8 18 23 24 33 6 11 48 77
92 148 45 70 79 127 77 127 -4 0 57 106 72 125 11 14 173 342 173 350 0 3 9
25 19 48 25 56 93 228 92 234 0 2 8 23 19 48 11 25 20 49 21 53 1 4 3 12 5 17
8 24 54 190 69 245 3 12 26 119 30 141 3 13 7 35 10 49 44 217 52 538 20 750
-10 69 -17 106 -20 120 -3 8 -7 33 -11 54 -3 22 -10 50 -15 63 -5 13 -11 38
-14 54 -6 33 -65 213 -86 264 -7 17 -13 32 -14 35 -1 3 -9 22 -18 44 -9 21
-17 41 -17 43 0 9 -112 229 -147 288 -20 33 -53 85 -74 117 -22 31 -39 60 -39
65 0 5 -9 15 -20 23 -11 8 -20 18 -20 23 0 8 -90 124 -145 186 -41 47 -183
189 -226 226 -85 74 -223 175 -238 175 -5 0 -11 3 -13 8 -13 31 -330 181 -436
208 -236 58 -242 58 -447 59 -151 0 -233 -5 -315 -19 -14 -3 -43 -7 -64 -11
-51 -7 -211 -42 -211 -45 0 -1 -11 -3 -25 -6 -14 -2 -32 -7 -40 -11 -18 -7
-28 -10 -57 -17 -12 -2 -31 -10 -42 -16 -12 -6 -21 -8 -21 -5 0 3 -13 -1 -30
-10 -16 -8 -31 -15 -32 -14 -3 0 -46 -15 -83 -29 -42 -17 -280 -136 -285 -142
-3 -4 -16 -13 -30 -20 -43 -22 -183 -126 -228 -169 -24 -23 -47 -41 -51 -41
-5 0 -14 -7 -21 -15 -12 -14 -59 -39 -115 -59 -37 -14 -79 -20 -146 -19 -114
1 -192 34 -307 132 -46 39 -104 86 -130 105 -51 37 -249 156 -260 156 -4 0
-24 9 -45 20 -41 22 -232 100 -258 105 -8 2 -32 10 -52 19 -20 8 -37 13 -37
10 0 -2 -15 2 -34 10 -19 8 -37 12 -40 9 -3 -3 -12 0 -21 7 -8 7 -15 9 -15 5
0 -4 -6 -2 -13 4 -8 6 -17 8 -20 5 -4 -4 -19 -2 -34 4 -27 11 -62 18 -133 27
-19 3 -51 8 -70 11 -19 4 -46 9 -60 11 -44 5 -386 14 -390 10z"/>
</g>
</svg>
