<svg xmlns="http://www.w3.org/2000/svg" width="394.8999938964844" height="343.20001220703125" style=""><rect id="backgroundrect" width="100%" height="100%" x="0" y="0" fill="none" stroke="none"/>
 <style type="text/css">.st0{fill:#FFFFFF;}</style>

 <g style="">
  <title>background</title>
  <rect fill="none" id="canvas_background" height="345.20001220703125" width="396.8999938964844" y="-1" x="-1"/>
 </g>
 <g style="" class="currentLayer">
  <title>Layer 1</title>
  <path stroke="null" id="svg_1" d="m380.0725763929015,160.1568743282301 c0,-0.28395243365476946 0,-0.42592951830213516 0,-0.7098819519569034 c0,-1.4197639039138057 0.14197621682738457,-2.8395278078276114 0.14197621682738457,-4.117315494914033 c0,-48.129995648422025 -39.04350648980968,-102.79090508128357 -87.1735021382317,-102.79090508128357 c-22.574245377973526,0 -48.697901383551546,8.518583423482834 -64.17332724195603,22.574245377973526 c-8.092653905180699,8.092653905180699 -20.01867087162066,7.666725254698546 -27.685396126319212,0 c-15.475426726224477,-14.055662822310671 -41.7410580808099,-22.574245377973526 -64.17332724195603,-22.574245377973526 c-48.129995648422025,0 -87.1735021382317,54.66090943286154 -87.1735021382317,102.79090508128357 c0,1.4197639039138057 0,2.6975515910002272 0.14197621682738457,4.117315494914033 c0,0.28395243365476946 0,0.42592951830213516 0,0.7098819519569034 c3.1234802414823797,59.34613066290509 60.62391748217152,137.0072149920423 124.65526937512017,167.5321380583691 c11.074157929835694,5.821031832482607 23.426104414577797,9.228465375439738 36.6299082002842,9.796371110569254 c1.2777876870864215,0 2.555575374172843,0.14197621682738457 3.833362193439283,0.14197621682738457 s2.555575374172843,0 3.833362193439283,-0.14197621682738457 c13.203803785706404,-0.56790573512952 25.5557502704485,-4.117315494914033 36.6299082002842,-9.796371110569254 c63.88937480830127,-30.382946849499454 121.53178826581781,-108.18600826328402 124.51329315829278,-167.5321380583691 z" class="st0 selected" transform="rotate(-45 215.02502441406253,195.08308410644528) "/>
 </g>
</svg>